<svg width="896" height="506" viewBox="0 0 896 506" fill="none" xmlns="http://www.w3.org/2000/svg">
<rect width="896" height="506" rx="6" fill="#1B1A18"/>
<rect x="379" y="82" width="150" height="150" rx="6" fill="#353431"/>
<rect x="250" y="328" width="400" height="60" rx="6" fill="#353431"/>
<path d="M411.407 179.66H406.046L404.842 183H403.102L407.988 170.203H409.465L414.36 183H412.629L411.407 179.66ZM406.556 178.271H410.906L408.727 172.286L406.556 178.271ZM415.433 178.166C415.433 176.707 415.778 175.535 416.47 174.65C417.161 173.76 418.066 173.314 419.186 173.314C420.299 173.314 421.181 173.695 421.831 174.457V169.5H423.457V183H421.963L421.884 181.98C421.233 182.777 420.328 183.176 419.168 183.176C418.066 183.176 417.167 182.725 416.47 181.822C415.778 180.92 415.433 179.742 415.433 178.289V178.166ZM417.059 178.351C417.059 179.429 417.281 180.272 417.727 180.882C418.172 181.491 418.787 181.796 419.572 181.796C420.604 181.796 421.356 181.333 421.831 180.407V176.039C421.345 175.143 420.598 174.694 419.59 174.694C418.793 174.694 418.172 175.002 417.727 175.617C417.281 176.232 417.059 177.144 417.059 178.351ZM427.755 183H426.129V173.49H427.755V183ZM425.997 170.968C425.997 170.704 426.076 170.481 426.234 170.3C426.398 170.118 426.639 170.027 426.955 170.027C427.271 170.027 427.512 170.118 427.676 170.3C427.84 170.481 427.922 170.704 427.922 170.968C427.922 171.231 427.84 171.451 427.676 171.627C427.512 171.803 427.271 171.891 426.955 171.891C426.639 171.891 426.398 171.803 426.234 171.627C426.076 171.451 425.997 171.231 425.997 170.968ZM434.18 181.849C434.76 181.849 435.267 181.673 435.7 181.321C436.134 180.97 436.374 180.53 436.421 180.003H437.959C437.93 180.548 437.742 181.066 437.396 181.559C437.051 182.051 436.588 182.443 436.008 182.736C435.434 183.029 434.824 183.176 434.18 183.176C432.885 183.176 431.854 182.745 431.086 181.884C430.324 181.017 429.943 179.833 429.943 178.333V178.061C429.943 177.135 430.113 176.312 430.453 175.591C430.793 174.87 431.279 174.311 431.912 173.912C432.551 173.514 433.304 173.314 434.171 173.314C435.237 173.314 436.122 173.634 436.825 174.272C437.534 174.911 437.912 175.74 437.959 176.76H436.421C436.374 176.145 436.14 175.641 435.718 175.248C435.302 174.85 434.786 174.65 434.171 174.65C433.345 174.65 432.703 174.949 432.246 175.547C431.795 176.139 431.569 176.997 431.569 178.122V178.43C431.569 179.525 431.795 180.369 432.246 180.961C432.697 181.553 433.342 181.849 434.18 181.849ZM441.554 183H439.928V173.49H441.554V183ZM439.796 170.968C439.796 170.704 439.875 170.481 440.033 170.3C440.197 170.118 440.438 170.027 440.754 170.027C441.07 170.027 441.311 170.118 441.475 170.3C441.639 170.481 441.721 170.704 441.721 170.968C441.721 171.231 441.639 171.451 441.475 171.627C441.311 171.803 441.07 171.891 440.754 171.891C440.438 171.891 440.197 171.803 440.033 171.627C439.875 171.451 439.796 171.231 439.796 170.968ZM443.733 178.157C443.733 177.226 443.915 176.388 444.278 175.644C444.647 174.899 445.157 174.325 445.808 173.921C446.464 173.517 447.211 173.314 448.049 173.314C449.344 173.314 450.39 173.763 451.187 174.659C451.989 175.556 452.391 176.748 452.391 178.236V178.351C452.391 179.276 452.212 180.108 451.854 180.847C451.503 181.579 450.996 182.15 450.334 182.561C449.678 182.971 448.922 183.176 448.066 183.176C446.777 183.176 445.731 182.728 444.929 181.831C444.132 180.935 443.733 179.748 443.733 178.271V178.157ZM445.368 178.351C445.368 179.405 445.611 180.252 446.098 180.891C446.59 181.529 447.246 181.849 448.066 181.849C448.893 181.849 449.549 181.526 450.035 180.882C450.521 180.231 450.765 179.323 450.765 178.157C450.765 177.114 450.516 176.271 450.018 175.626C449.525 174.976 448.869 174.65 448.049 174.65C447.246 174.65 446.599 174.97 446.106 175.608C445.614 176.247 445.368 177.161 445.368 178.351ZM455.968 173.49L456.021 174.686C456.747 173.771 457.696 173.314 458.868 173.314C460.878 173.314 461.892 174.448 461.909 176.716V183H460.283V176.707C460.277 176.021 460.119 175.515 459.809 175.187C459.504 174.858 459.026 174.694 458.376 174.694C457.849 174.694 457.386 174.835 456.987 175.116C456.589 175.397 456.278 175.767 456.056 176.224V183H454.43V173.49H455.968ZM468.308 183.176C467.019 183.176 465.97 182.754 465.161 181.91C464.353 181.061 463.948 179.927 463.948 178.509V178.21C463.948 177.267 464.127 176.426 464.484 175.688C464.848 174.943 465.352 174.363 465.996 173.947C466.646 173.525 467.35 173.314 468.105 173.314C469.342 173.314 470.303 173.722 470.988 174.536C471.674 175.351 472.017 176.517 472.017 178.034V178.711H465.574C465.598 179.648 465.87 180.407 466.392 180.987C466.919 181.562 467.587 181.849 468.396 181.849C468.97 181.849 469.456 181.731 469.854 181.497C470.253 181.263 470.602 180.952 470.9 180.565L471.894 181.339C471.097 182.563 469.901 183.176 468.308 183.176ZM468.105 174.65C467.449 174.65 466.898 174.891 466.453 175.371C466.008 175.846 465.732 176.514 465.627 177.375H470.391V177.252C470.344 176.426 470.121 175.787 469.723 175.336C469.324 174.879 468.785 174.65 468.105 174.65ZM483.908 180.478C483.908 180.038 483.741 179.698 483.407 179.458C483.079 179.212 482.502 179.001 481.676 178.825C480.855 178.649 480.202 178.438 479.716 178.192C479.235 177.946 478.878 177.653 478.644 177.313C478.415 176.974 478.301 176.569 478.301 176.101C478.301 175.321 478.629 174.662 479.285 174.123C479.947 173.584 480.791 173.314 481.816 173.314C482.895 173.314 483.768 173.593 484.436 174.149C485.109 174.706 485.446 175.418 485.446 176.285H483.812C483.812 175.84 483.621 175.456 483.24 175.134C482.865 174.812 482.391 174.65 481.816 174.65C481.225 174.65 480.762 174.779 480.428 175.037C480.094 175.295 479.927 175.632 479.927 176.048C479.927 176.44 480.082 176.736 480.393 176.936C480.703 177.135 481.263 177.325 482.071 177.507C482.886 177.688 483.545 177.905 484.049 178.157C484.553 178.409 484.925 178.714 485.165 179.071C485.411 179.423 485.534 179.854 485.534 180.363C485.534 181.213 485.194 181.896 484.515 182.411C483.835 182.921 482.953 183.176 481.869 183.176C481.107 183.176 480.434 183.041 479.848 182.771C479.262 182.502 478.802 182.127 478.468 181.646C478.14 181.16 477.976 180.636 477.976 180.073H479.602C479.631 180.618 479.848 181.052 480.252 181.374C480.662 181.69 481.201 181.849 481.869 181.849C482.484 181.849 482.977 181.726 483.346 181.479C483.721 181.228 483.908 180.894 483.908 180.478ZM493.523 182.06C492.891 182.804 491.962 183.176 490.737 183.176C489.724 183.176 488.95 182.883 488.417 182.297C487.89 181.705 487.623 180.832 487.617 179.678V173.49H489.243V179.634C489.243 181.075 489.829 181.796 491.001 181.796C492.243 181.796 493.069 181.333 493.479 180.407V173.49H495.105V183H493.559L493.523 182.06ZM503.455 183C503.361 182.812 503.285 182.479 503.227 181.998C502.471 182.783 501.568 183.176 500.52 183.176C499.582 183.176 498.812 182.912 498.208 182.385C497.61 181.852 497.312 181.178 497.312 180.363C497.312 179.373 497.687 178.605 498.437 178.061C499.192 177.51 500.253 177.234 501.618 177.234H503.2V176.487C503.2 175.919 503.03 175.468 502.69 175.134C502.351 174.794 501.85 174.624 501.188 174.624C500.607 174.624 500.121 174.771 499.729 175.063C499.336 175.356 499.14 175.711 499.14 176.127H497.505C497.505 175.652 497.672 175.195 498.006 174.756C498.346 174.311 498.803 173.959 499.377 173.701C499.957 173.443 500.593 173.314 501.284 173.314C502.38 173.314 503.238 173.59 503.859 174.141C504.48 174.686 504.803 175.438 504.826 176.399V180.776C504.826 181.649 504.938 182.344 505.16 182.859V183H503.455ZM500.757 181.761C501.267 181.761 501.75 181.629 502.207 181.365C502.664 181.102 502.995 180.759 503.2 180.337V178.386H501.926C499.934 178.386 498.938 178.969 498.938 180.135C498.938 180.645 499.107 181.043 499.447 181.33C499.787 181.617 500.224 181.761 500.757 181.761ZM424.802 204H423.176V194.49H424.802V204ZM423.044 191.968C423.044 191.704 423.123 191.481 423.281 191.3C423.445 191.118 423.686 191.027 424.002 191.027C424.318 191.027 424.559 191.118 424.723 191.3C424.887 191.481 424.969 191.704 424.969 191.968C424.969 192.231 424.887 192.451 424.723 192.627C424.559 192.803 424.318 192.891 424.002 192.891C423.686 192.891 423.445 192.803 423.281 192.627C423.123 192.451 423.044 192.231 423.044 191.968ZM428.941 194.49L428.985 195.545C429.683 194.725 430.623 194.314 431.807 194.314C433.137 194.314 434.042 194.824 434.522 195.844C434.839 195.387 435.249 195.018 435.753 194.736C436.263 194.455 436.863 194.314 437.555 194.314C439.641 194.314 440.701 195.419 440.736 197.628V204H439.11V197.725C439.11 197.045 438.955 196.538 438.645 196.204C438.334 195.864 437.812 195.694 437.08 195.694C436.477 195.694 435.976 195.876 435.577 196.239C435.179 196.597 434.947 197.08 434.883 197.689V204H433.248V197.769C433.248 196.386 432.571 195.694 431.218 195.694C430.151 195.694 429.422 196.148 429.029 197.057V204H427.403V194.49H428.941ZM449.068 204C448.975 203.812 448.898 203.479 448.84 202.998C448.084 203.783 447.182 204.176 446.133 204.176C445.195 204.176 444.425 203.912 443.821 203.385C443.224 202.852 442.925 202.178 442.925 201.363C442.925 200.373 443.3 199.605 444.05 199.061C444.806 198.51 445.866 198.234 447.231 198.234H448.813V197.487C448.813 196.919 448.644 196.468 448.304 196.134C447.964 195.794 447.463 195.624 446.801 195.624C446.221 195.624 445.734 195.771 445.342 196.063C444.949 196.356 444.753 196.711 444.753 197.127H443.118C443.118 196.652 443.285 196.195 443.619 195.756C443.959 195.311 444.416 194.959 444.99 194.701C445.57 194.443 446.206 194.314 446.897 194.314C447.993 194.314 448.852 194.59 449.473 195.141C450.094 195.686 450.416 196.438 450.439 197.399V201.776C450.439 202.649 450.551 203.344 450.773 203.859V204H449.068ZM446.37 202.761C446.88 202.761 447.363 202.629 447.82 202.365C448.277 202.102 448.608 201.759 448.813 201.337V199.386H447.539C445.547 199.386 444.551 199.969 444.551 201.135C444.551 201.645 444.721 202.043 445.061 202.33C445.4 202.617 445.837 202.761 446.37 202.761ZM452.602 199.166C452.602 197.684 452.944 196.506 453.63 195.633C454.315 194.754 455.224 194.314 456.354 194.314C457.515 194.314 458.42 194.725 459.07 195.545L459.149 194.49H460.635V203.771C460.635 205.002 460.269 205.972 459.536 206.681C458.81 207.39 457.831 207.744 456.601 207.744C455.915 207.744 455.244 207.598 454.588 207.305C453.932 207.012 453.431 206.61 453.085 206.101L453.929 205.125C454.626 205.986 455.479 206.417 456.486 206.417C457.277 206.417 457.893 206.194 458.332 205.749C458.777 205.304 459 204.677 459 203.868V203.051C458.35 203.801 457.462 204.176 456.337 204.176C455.224 204.176 454.321 203.728 453.63 202.831C452.944 201.935 452.602 200.713 452.602 199.166ZM454.236 199.351C454.236 200.423 454.456 201.267 454.896 201.882C455.335 202.491 455.95 202.796 456.741 202.796C457.767 202.796 458.52 202.33 459 201.398V197.057C458.502 196.148 457.755 195.694 456.759 195.694C455.968 195.694 455.35 196.002 454.904 196.617C454.459 197.232 454.236 198.144 454.236 199.351ZM467.042 204.176C465.753 204.176 464.704 203.754 463.896 202.91C463.087 202.061 462.683 200.927 462.683 199.509V199.21C462.683 198.267 462.861 197.426 463.219 196.688C463.582 195.943 464.086 195.363 464.73 194.947C465.381 194.525 466.084 194.314 466.84 194.314C468.076 194.314 469.037 194.722 469.723 195.536C470.408 196.351 470.751 197.517 470.751 199.034V199.711H464.309C464.332 200.648 464.604 201.407 465.126 201.987C465.653 202.562 466.321 202.849 467.13 202.849C467.704 202.849 468.19 202.731 468.589 202.497C468.987 202.263 469.336 201.952 469.635 201.565L470.628 202.339C469.831 203.563 468.636 204.176 467.042 204.176ZM466.84 195.65C466.184 195.65 465.633 195.891 465.188 196.371C464.742 196.846 464.467 197.514 464.361 198.375H469.125V198.252C469.078 197.426 468.855 196.787 468.457 196.336C468.059 195.879 467.52 195.65 466.84 195.65ZM474.17 194.49L474.214 195.545C474.911 194.725 475.852 194.314 477.035 194.314C478.365 194.314 479.271 194.824 479.751 195.844C480.067 195.387 480.478 195.018 480.981 194.736C481.491 194.455 482.092 194.314 482.783 194.314C484.869 194.314 485.93 195.419 485.965 197.628V204H484.339V197.725C484.339 197.045 484.184 196.538 483.873 196.204C483.562 195.864 483.041 195.694 482.309 195.694C481.705 195.694 481.204 195.876 480.806 196.239C480.407 196.597 480.176 197.08 480.111 197.689V204H478.477V197.769C478.477 196.386 477.8 195.694 476.446 195.694C475.38 195.694 474.65 196.148 474.258 197.057V204H472.632V194.49H474.17Z" fill="#DDDCDA"/>
<path d="M279.485 364V351.203H283.098C284.211 351.203 285.195 351.449 286.051 351.941C286.906 352.434 287.565 353.134 288.028 354.042C288.497 354.95 288.734 355.993 288.74 357.171V357.988C288.74 359.195 288.506 360.253 288.037 361.161C287.574 362.069 286.909 362.767 286.042 363.253C285.181 363.739 284.176 363.988 283.027 364H279.485ZM281.173 352.592V362.62H282.948C284.249 362.62 285.26 362.216 285.98 361.407C286.707 360.599 287.07 359.447 287.07 357.953V357.206C287.07 355.753 286.728 354.625 286.042 353.822C285.362 353.014 284.396 352.604 283.142 352.592H281.173ZM294.989 364.176C293.7 364.176 292.651 363.754 291.843 362.91C291.034 362.061 290.63 360.927 290.63 359.509V359.21C290.63 358.267 290.809 357.426 291.166 356.688C291.529 355.943 292.033 355.363 292.678 354.947C293.328 354.525 294.031 354.314 294.787 354.314C296.023 354.314 296.984 354.722 297.67 355.536C298.355 356.351 298.698 357.517 298.698 359.034V359.711H292.256C292.279 360.648 292.552 361.407 293.073 361.987C293.601 362.562 294.269 362.849 295.077 362.849C295.651 362.849 296.138 362.731 296.536 362.497C296.935 362.263 297.283 361.952 297.582 361.565L298.575 362.339C297.778 363.563 296.583 364.176 294.989 364.176ZM294.787 355.65C294.131 355.65 293.58 355.891 293.135 356.371C292.689 356.846 292.414 357.514 292.309 358.375H297.072V358.252C297.025 357.426 296.803 356.787 296.404 356.336C296.006 355.879 295.467 355.65 294.787 355.65ZM306.125 361.478C306.125 361.038 305.958 360.698 305.624 360.458C305.296 360.212 304.719 360.001 303.893 359.825C303.072 359.649 302.419 359.438 301.933 359.192C301.452 358.946 301.095 358.653 300.86 358.313C300.632 357.974 300.518 357.569 300.518 357.101C300.518 356.321 300.846 355.662 301.502 355.123C302.164 354.584 303.008 354.314 304.033 354.314C305.111 354.314 305.984 354.593 306.652 355.149C307.326 355.706 307.663 356.418 307.663 357.285H306.028C306.028 356.84 305.838 356.456 305.457 356.134C305.082 355.812 304.607 355.65 304.033 355.65C303.441 355.65 302.979 355.779 302.645 356.037C302.311 356.295 302.144 356.632 302.144 357.048C302.144 357.44 302.299 357.736 302.609 357.936C302.92 358.135 303.479 358.325 304.288 358.507C305.103 358.688 305.762 358.905 306.266 359.157C306.77 359.409 307.142 359.714 307.382 360.071C307.628 360.423 307.751 360.854 307.751 361.363C307.751 362.213 307.411 362.896 306.731 363.411C306.052 363.921 305.17 364.176 304.086 364.176C303.324 364.176 302.65 364.041 302.064 363.771C301.479 363.502 301.019 363.127 300.685 362.646C300.356 362.16 300.192 361.636 300.192 361.073H301.818C301.848 361.618 302.064 362.052 302.469 362.374C302.879 362.69 303.418 362.849 304.086 362.849C304.701 362.849 305.193 362.726 305.562 362.479C305.938 362.228 306.125 361.894 306.125 361.478ZM313.684 362.849C314.264 362.849 314.771 362.673 315.204 362.321C315.638 361.97 315.878 361.53 315.925 361.003H317.463C317.434 361.548 317.246 362.066 316.9 362.559C316.555 363.051 316.092 363.443 315.512 363.736C314.938 364.029 314.328 364.176 313.684 364.176C312.389 364.176 311.357 363.745 310.59 362.884C309.828 362.017 309.447 360.833 309.447 359.333V359.061C309.447 358.135 309.617 357.312 309.957 356.591C310.297 355.87 310.783 355.311 311.416 354.912C312.055 354.514 312.808 354.314 313.675 354.314C314.741 354.314 315.626 354.634 316.329 355.272C317.038 355.911 317.416 356.74 317.463 357.76H315.925C315.878 357.145 315.644 356.641 315.222 356.248C314.806 355.85 314.29 355.65 313.675 355.65C312.849 355.65 312.207 355.949 311.75 356.547C311.299 357.139 311.073 357.997 311.073 359.122V359.43C311.073 360.525 311.299 361.369 311.75 361.961C312.201 362.553 312.846 362.849 313.684 362.849ZM323.888 355.949C323.642 355.908 323.375 355.888 323.088 355.888C322.021 355.888 321.298 356.342 320.917 357.25V364H319.291V354.49H320.873L320.899 355.589C321.433 354.739 322.188 354.314 323.167 354.314C323.483 354.314 323.724 354.355 323.888 354.438V355.949ZM327.157 364H325.531V354.49H327.157V364ZM325.399 351.968C325.399 351.704 325.479 351.481 325.637 351.3C325.801 351.118 326.041 351.027 326.357 351.027C326.674 351.027 326.914 351.118 327.078 351.3C327.242 351.481 327.324 351.704 327.324 351.968C327.324 352.231 327.242 352.451 327.078 352.627C326.914 352.803 326.674 352.891 326.357 352.891C326.041 352.891 325.801 352.803 325.637 352.627C325.479 352.451 325.399 352.231 325.399 351.968ZM333.582 362.849C334.162 362.849 334.669 362.673 335.103 362.321C335.536 361.97 335.776 361.53 335.823 361.003H337.361C337.332 361.548 337.145 362.066 336.799 362.559C336.453 363.051 335.99 363.443 335.41 363.736C334.836 364.029 334.227 364.176 333.582 364.176C332.287 364.176 331.256 363.745 330.488 362.884C329.727 362.017 329.346 360.833 329.346 359.333V359.061C329.346 358.135 329.516 357.312 329.855 356.591C330.195 355.87 330.682 355.311 331.314 354.912C331.953 354.514 332.706 354.314 333.573 354.314C334.64 354.314 335.524 354.634 336.228 355.272C336.937 355.911 337.314 356.74 337.361 357.76H335.823C335.776 357.145 335.542 356.641 335.12 356.248C334.704 355.85 334.188 355.65 333.573 355.65C332.747 355.65 332.105 355.949 331.648 356.547C331.197 357.139 330.972 357.997 330.972 359.122V359.43C330.972 360.525 331.197 361.369 331.648 361.961C332.1 362.553 332.744 362.849 333.582 362.849ZM333.846 364.079L333.74 364.536C334.637 364.694 335.085 365.201 335.085 366.057C335.085 366.625 334.851 367.073 334.382 367.401C333.913 367.735 333.26 367.902 332.422 367.902L332.36 366.962C332.823 366.962 333.181 366.886 333.433 366.733C333.69 366.581 333.819 366.367 333.819 366.092C333.819 365.834 333.726 365.644 333.538 365.521C333.351 365.397 332.97 365.31 332.396 365.257L332.677 364.079H333.846ZM345.061 364C344.967 363.812 344.891 363.479 344.832 362.998C344.076 363.783 343.174 364.176 342.125 364.176C341.188 364.176 340.417 363.912 339.813 363.385C339.216 362.852 338.917 362.178 338.917 361.363C338.917 360.373 339.292 359.605 340.042 359.061C340.798 358.51 341.858 358.234 343.224 358.234H344.806V357.487C344.806 356.919 344.636 356.468 344.296 356.134C343.956 355.794 343.455 355.624 342.793 355.624C342.213 355.624 341.727 355.771 341.334 356.063C340.941 356.356 340.745 356.711 340.745 357.127H339.11C339.11 356.652 339.277 356.195 339.611 355.756C339.951 355.311 340.408 354.959 340.982 354.701C341.562 354.443 342.198 354.314 342.89 354.314C343.985 354.314 344.844 354.59 345.465 355.141C346.086 355.686 346.408 356.438 346.432 357.399V361.776C346.432 362.649 346.543 363.344 346.766 363.859V364H345.061ZM342.362 362.761C342.872 362.761 343.355 362.629 343.812 362.365C344.27 362.102 344.601 361.759 344.806 361.337V359.386H343.531C341.539 359.386 340.543 359.969 340.543 361.135C340.543 361.645 340.713 362.043 341.053 362.33C341.393 362.617 341.829 362.761 342.362 362.761ZM346.186 350.781C346.186 351.414 346.004 351.927 345.641 352.319C345.283 352.712 344.835 352.908 344.296 352.908C344.056 352.908 343.848 352.879 343.672 352.82C343.496 352.762 343.265 352.642 342.978 352.46C342.696 352.278 342.491 352.17 342.362 352.135C342.239 352.094 342.096 352.073 341.932 352.073C341.691 352.073 341.486 352.167 341.316 352.354C341.146 352.536 341.062 352.771 341.062 353.058L339.972 352.996C339.972 352.369 340.147 351.851 340.499 351.44C340.856 351.03 341.308 350.825 341.853 350.825C342.058 350.825 342.242 350.854 342.406 350.913C342.57 350.972 342.793 351.086 343.074 351.256C343.355 351.426 343.569 351.537 343.716 351.59C343.868 351.643 344.035 351.669 344.217 351.669C344.469 351.669 344.677 351.569 344.841 351.37C345.011 351.171 345.096 350.939 345.096 350.676L346.186 350.781ZM348.55 359.157C348.55 358.226 348.731 357.388 349.095 356.644C349.464 355.899 349.974 355.325 350.624 354.921C351.28 354.517 352.027 354.314 352.865 354.314C354.16 354.314 355.206 354.763 356.003 355.659C356.806 356.556 357.207 357.748 357.207 359.236V359.351C357.207 360.276 357.028 361.108 356.671 361.847C356.319 362.579 355.812 363.15 355.15 363.561C354.494 363.971 353.738 364.176 352.883 364.176C351.594 364.176 350.548 363.728 349.745 362.831C348.948 361.935 348.55 360.748 348.55 359.271V359.157ZM350.185 359.351C350.185 360.405 350.428 361.252 350.914 361.891C351.406 362.529 352.062 362.849 352.883 362.849C353.709 362.849 354.365 362.526 354.852 361.882C355.338 361.231 355.581 360.323 355.581 359.157C355.581 358.114 355.332 357.271 354.834 356.626C354.342 355.976 353.686 355.65 352.865 355.65C352.062 355.65 351.415 355.97 350.923 356.608C350.431 357.247 350.185 358.161 350.185 359.351ZM363.315 359.166C363.315 357.707 363.661 356.535 364.353 355.65C365.044 354.76 365.949 354.314 367.068 354.314C368.182 354.314 369.063 354.695 369.714 355.457V350.5H371.34V364H369.846L369.767 362.98C369.116 363.777 368.211 364.176 367.051 364.176C365.949 364.176 365.05 363.725 364.353 362.822C363.661 361.92 363.315 360.742 363.315 359.289V359.166ZM364.941 359.351C364.941 360.429 365.164 361.272 365.609 361.882C366.055 362.491 366.67 362.796 367.455 362.796C368.486 362.796 369.239 362.333 369.714 361.407V357.039C369.228 356.143 368.48 355.694 367.473 355.694C366.676 355.694 366.055 356.002 365.609 356.617C365.164 357.232 364.941 358.144 364.941 359.351ZM379.742 364C379.648 363.812 379.572 363.479 379.514 362.998C378.758 363.783 377.855 364.176 376.807 364.176C375.869 364.176 375.099 363.912 374.495 363.385C373.897 362.852 373.599 362.178 373.599 361.363C373.599 360.373 373.974 359.605 374.724 359.061C375.479 358.51 376.54 358.234 377.905 358.234H379.487V357.487C379.487 356.919 379.317 356.468 378.978 356.134C378.638 355.794 378.137 355.624 377.475 355.624C376.895 355.624 376.408 355.771 376.016 356.063C375.623 356.356 375.427 356.711 375.427 357.127H373.792C373.792 356.652 373.959 356.195 374.293 355.756C374.633 355.311 375.09 354.959 375.664 354.701C376.244 354.443 376.88 354.314 377.571 354.314C378.667 354.314 379.525 354.59 380.146 355.141C380.768 355.686 381.09 356.438 381.113 357.399V361.776C381.113 362.649 381.225 363.344 381.447 363.859V364H379.742ZM377.044 362.761C377.554 362.761 378.037 362.629 378.494 362.365C378.951 362.102 379.282 361.759 379.487 361.337V359.386H378.213C376.221 359.386 375.225 359.969 375.225 361.135C375.225 361.645 375.395 362.043 375.734 362.33C376.074 362.617 376.511 362.761 377.044 362.761ZM389.894 364H388.268V354.49H389.894V364ZM388.136 351.968C388.136 351.704 388.215 351.481 388.373 351.3C388.537 351.118 388.777 351.027 389.094 351.027C389.41 351.027 389.65 351.118 389.814 351.3C389.979 351.481 390.061 351.704 390.061 351.968C390.061 352.231 389.979 352.451 389.814 352.627C389.65 352.803 389.41 352.891 389.094 352.891C388.777 352.891 388.537 352.803 388.373 352.627C388.215 352.451 388.136 352.231 388.136 351.968ZM394.033 354.49L394.077 355.545C394.774 354.725 395.715 354.314 396.898 354.314C398.229 354.314 399.134 354.824 399.614 355.844C399.931 355.387 400.341 355.018 400.845 354.736C401.354 354.455 401.955 354.314 402.646 354.314C404.732 354.314 405.793 355.419 405.828 357.628V364H404.202V357.725C404.202 357.045 404.047 356.538 403.736 356.204C403.426 355.864 402.904 355.694 402.172 355.694C401.568 355.694 401.067 355.876 400.669 356.239C400.271 356.597 400.039 357.08 399.975 357.689V364H398.34V357.769C398.34 356.386 397.663 355.694 396.31 355.694C395.243 355.694 394.514 356.148 394.121 357.057V364H392.495V354.49H394.033ZM414.16 364C414.066 363.812 413.99 363.479 413.932 362.998C413.176 363.783 412.273 364.176 411.225 364.176C410.287 364.176 409.517 363.912 408.913 363.385C408.315 362.852 408.017 362.178 408.017 361.363C408.017 360.373 408.392 359.605 409.142 359.061C409.897 358.51 410.958 358.234 412.323 358.234H413.905V357.487C413.905 356.919 413.735 356.468 413.396 356.134C413.056 355.794 412.555 355.624 411.893 355.624C411.312 355.624 410.826 355.771 410.434 356.063C410.041 356.356 409.845 356.711 409.845 357.127H408.21C408.21 356.652 408.377 356.195 408.711 355.756C409.051 355.311 409.508 354.959 410.082 354.701C410.662 354.443 411.298 354.314 411.989 354.314C413.085 354.314 413.943 354.59 414.564 355.141C415.186 355.686 415.508 356.438 415.531 357.399V361.776C415.531 362.649 415.643 363.344 415.865 363.859V364H414.16ZM411.462 362.761C411.972 362.761 412.455 362.629 412.912 362.365C413.369 362.102 413.7 361.759 413.905 361.337V359.386H412.631C410.639 359.386 409.643 359.969 409.643 361.135C409.643 361.645 409.812 362.043 410.152 362.33C410.492 362.617 410.929 362.761 411.462 362.761ZM417.693 359.166C417.693 357.684 418.036 356.506 418.722 355.633C419.407 354.754 420.315 354.314 421.446 354.314C422.606 354.314 423.512 354.725 424.162 355.545L424.241 354.49H425.727V363.771C425.727 365.002 425.36 365.972 424.628 366.681C423.901 367.39 422.923 367.744 421.692 367.744C421.007 367.744 420.336 367.598 419.68 367.305C419.023 367.012 418.522 366.61 418.177 366.101L419.021 365.125C419.718 365.986 420.57 366.417 421.578 366.417C422.369 366.417 422.984 366.194 423.424 365.749C423.869 365.304 424.092 364.677 424.092 363.868V363.051C423.441 363.801 422.554 364.176 421.429 364.176C420.315 364.176 419.413 363.728 418.722 362.831C418.036 361.935 417.693 360.713 417.693 359.166ZM419.328 359.351C419.328 360.423 419.548 361.267 419.987 361.882C420.427 362.491 421.042 362.796 421.833 362.796C422.858 362.796 423.611 362.33 424.092 361.398V357.057C423.594 356.148 422.847 355.694 421.851 355.694C421.06 355.694 420.441 356.002 419.996 356.617C419.551 357.232 419.328 358.144 419.328 359.351ZM432.134 364.176C430.845 364.176 429.796 363.754 428.987 362.91C428.179 362.061 427.774 360.927 427.774 359.509V359.21C427.774 358.267 427.953 357.426 428.311 356.688C428.674 355.943 429.178 355.363 429.822 354.947C430.473 354.525 431.176 354.314 431.932 354.314C433.168 354.314 434.129 354.722 434.814 355.536C435.5 356.351 435.843 357.517 435.843 359.034V359.711H429.4C429.424 360.648 429.696 361.407 430.218 361.987C430.745 362.562 431.413 362.849 432.222 362.849C432.796 362.849 433.282 362.731 433.681 362.497C434.079 362.263 434.428 361.952 434.727 361.565L435.72 362.339C434.923 363.563 433.728 364.176 432.134 364.176ZM431.932 355.65C431.275 355.65 430.725 355.891 430.279 356.371C429.834 356.846 429.559 357.514 429.453 358.375H434.217V358.252C434.17 357.426 433.947 356.787 433.549 356.336C433.15 355.879 432.611 355.65 431.932 355.65ZM439.262 354.49L439.306 355.545C440.003 354.725 440.943 354.314 442.127 354.314C443.457 354.314 444.362 354.824 444.843 355.844C445.159 355.387 445.569 355.018 446.073 354.736C446.583 354.455 447.184 354.314 447.875 354.314C449.961 354.314 451.021 355.419 451.057 357.628V364H449.431V357.725C449.431 357.045 449.275 356.538 448.965 356.204C448.654 355.864 448.133 355.694 447.4 355.694C446.797 355.694 446.296 355.876 445.897 356.239C445.499 356.597 445.268 357.08 445.203 357.689V364H443.568V357.769C443.568 356.386 442.892 355.694 441.538 355.694C440.472 355.694 439.742 356.148 439.35 357.057V364H437.724V354.49H439.262ZM453.553 363.147C453.553 362.866 453.635 362.632 453.799 362.444C453.969 362.257 454.221 362.163 454.555 362.163C454.889 362.163 455.141 362.257 455.311 362.444C455.486 362.632 455.574 362.866 455.574 363.147C455.574 363.417 455.486 363.643 455.311 363.824C455.141 364.006 454.889 364.097 454.555 364.097C454.221 364.097 453.969 364.006 453.799 363.824C453.635 363.643 453.553 363.417 453.553 363.147ZM458.299 363.147C458.299 362.866 458.381 362.632 458.545 362.444C458.715 362.257 458.967 362.163 459.301 362.163C459.635 362.163 459.887 362.257 460.057 362.444C460.232 362.632 460.32 362.866 460.32 363.147C460.32 363.417 460.232 363.643 460.057 363.824C459.887 364.006 459.635 364.097 459.301 364.097C458.967 364.097 458.715 364.006 458.545 363.824C458.381 363.643 458.299 363.417 458.299 363.147ZM463.045 363.147C463.045 362.866 463.127 362.632 463.291 362.444C463.461 362.257 463.713 362.163 464.047 362.163C464.381 362.163 464.633 362.257 464.803 362.444C464.979 362.632 465.066 362.866 465.066 363.147C465.066 363.417 464.979 363.643 464.803 363.824C464.633 364.006 464.381 364.097 464.047 364.097C463.713 364.097 463.461 364.006 463.291 363.824C463.127 363.643 463.045 363.417 463.045 363.147Z" fill="#DDDCDA"/>
<rect x="250" y="252" width="400" height="60" rx="6" fill="#353431"/>
<path d="M288.327 276.592H284.214V288H282.535V276.592H278.431V275.203H288.327V276.592ZM291.737 288H290.103V278.49H291.737V288ZM291.755 274.509H293.724L291.368 277.093H290.059L291.755 274.509ZM296.624 276.188V278.49H298.399V279.747H296.624V285.645C296.624 286.025 296.703 286.312 296.861 286.506C297.02 286.693 297.289 286.787 297.67 286.787C297.857 286.787 298.115 286.752 298.443 286.682V288C298.016 288.117 297.6 288.176 297.195 288.176C296.469 288.176 295.921 287.956 295.552 287.517C295.183 287.077 294.998 286.453 294.998 285.645V279.747H293.267V278.49H294.998V276.188H296.624ZM306.178 287.06C305.545 287.804 304.616 288.176 303.392 288.176C302.378 288.176 301.604 287.883 301.071 287.297C300.544 286.705 300.277 285.832 300.271 284.678V278.49H301.897V284.634C301.897 286.075 302.483 286.796 303.655 286.796C304.897 286.796 305.724 286.333 306.134 285.407V278.49H307.76V288H306.213L306.178 287.06ZM312.005 288H310.379V274.5H312.005V288ZM314.185 283.157C314.185 282.226 314.366 281.388 314.729 280.644C315.099 279.899 315.608 279.325 316.259 278.921C316.915 278.517 317.662 278.314 318.5 278.314C319.795 278.314 320.841 278.763 321.638 279.659C322.44 280.556 322.842 281.748 322.842 283.236V283.351C322.842 284.276 322.663 285.108 322.306 285.847C321.954 286.579 321.447 287.15 320.785 287.561C320.129 287.971 319.373 288.176 318.518 288.176C317.229 288.176 316.183 287.728 315.38 286.831C314.583 285.935 314.185 284.748 314.185 283.271V283.157ZM315.819 283.351C315.819 284.405 316.062 285.252 316.549 285.891C317.041 286.529 317.697 286.849 318.518 286.849C319.344 286.849 320 286.526 320.486 285.882C320.973 285.231 321.216 284.323 321.216 283.157C321.216 282.114 320.967 281.271 320.469 280.626C319.977 279.976 319.32 279.65 318.5 279.65C317.697 279.65 317.05 279.97 316.558 280.608C316.065 281.247 315.819 282.161 315.819 283.351ZM328.95 283.166C328.95 281.707 329.296 280.535 329.987 279.65C330.679 278.76 331.584 278.314 332.703 278.314C333.816 278.314 334.698 278.695 335.349 279.457V274.5H336.975V288H335.48L335.401 286.98C334.751 287.777 333.846 288.176 332.686 288.176C331.584 288.176 330.685 287.725 329.987 286.822C329.296 285.92 328.95 284.742 328.95 283.289V283.166ZM330.576 283.351C330.576 284.429 330.799 285.272 331.244 285.882C331.689 286.491 332.305 286.796 333.09 286.796C334.121 286.796 334.874 286.333 335.349 285.407V281.039C334.862 280.143 334.115 279.694 333.107 279.694C332.311 279.694 331.689 280.002 331.244 280.617C330.799 281.232 330.576 282.144 330.576 283.351ZM345.377 288C345.283 287.812 345.207 287.479 345.148 286.998C344.393 287.783 343.49 288.176 342.441 288.176C341.504 288.176 340.733 287.912 340.13 287.385C339.532 286.852 339.233 286.178 339.233 285.363C339.233 284.373 339.608 283.605 340.358 283.061C341.114 282.51 342.175 282.234 343.54 282.234H345.122V281.487C345.122 280.919 344.952 280.468 344.612 280.134C344.272 279.794 343.771 279.624 343.109 279.624C342.529 279.624 342.043 279.771 341.65 280.063C341.258 280.356 341.062 280.711 341.062 281.127H339.427C339.427 280.652 339.594 280.195 339.928 279.756C340.268 279.311 340.725 278.959 341.299 278.701C341.879 278.443 342.515 278.314 343.206 278.314C344.302 278.314 345.16 278.59 345.781 279.141C346.402 279.686 346.725 280.438 346.748 281.399V285.776C346.748 286.649 346.859 287.344 347.082 287.859V288H345.377ZM342.679 286.761C343.188 286.761 343.672 286.629 344.129 286.365C344.586 286.102 344.917 285.759 345.122 285.337V283.386H343.848C341.855 283.386 340.859 283.969 340.859 285.135C340.859 285.645 341.029 286.043 341.369 286.33C341.709 286.617 342.146 286.761 342.679 286.761ZM355.528 288H353.902V278.49H355.528V288ZM353.771 275.968C353.771 275.704 353.85 275.481 354.008 275.3C354.172 275.118 354.412 275.027 354.729 275.027C355.045 275.027 355.285 275.118 355.449 275.3C355.613 275.481 355.695 275.704 355.695 275.968C355.695 276.231 355.613 276.451 355.449 276.627C355.285 276.803 355.045 276.891 354.729 276.891C354.412 276.891 354.172 276.803 354.008 276.627C353.85 276.451 353.771 276.231 353.771 275.968ZM359.668 278.49L359.712 279.545C360.409 278.725 361.35 278.314 362.533 278.314C363.863 278.314 364.769 278.824 365.249 279.844C365.565 279.387 365.976 279.018 366.479 278.736C366.989 278.455 367.59 278.314 368.281 278.314C370.367 278.314 371.428 279.419 371.463 281.628V288H369.837V281.725C369.837 281.045 369.682 280.538 369.371 280.204C369.061 279.864 368.539 279.694 367.807 279.694C367.203 279.694 366.702 279.876 366.304 280.239C365.905 280.597 365.674 281.08 365.609 281.689V288H363.975V281.769C363.975 280.386 363.298 279.694 361.944 279.694C360.878 279.694 360.148 280.148 359.756 281.057V288H358.13V278.49H359.668ZM379.795 288C379.701 287.812 379.625 287.479 379.566 286.998C378.811 287.783 377.908 288.176 376.859 288.176C375.922 288.176 375.151 287.912 374.548 287.385C373.95 286.852 373.651 286.178 373.651 285.363C373.651 284.373 374.026 283.605 374.776 283.061C375.532 282.51 376.593 282.234 377.958 282.234H379.54V281.487C379.54 280.919 379.37 280.468 379.03 280.134C378.69 279.794 378.189 279.624 377.527 279.624C376.947 279.624 376.461 279.771 376.068 280.063C375.676 280.356 375.479 280.711 375.479 281.127H373.845C373.845 280.652 374.012 280.195 374.346 279.756C374.686 279.311 375.143 278.959 375.717 278.701C376.297 278.443 376.933 278.314 377.624 278.314C378.72 278.314 379.578 278.59 380.199 279.141C380.82 279.686 381.143 280.438 381.166 281.399V285.776C381.166 286.649 381.277 287.344 381.5 287.859V288H379.795ZM377.097 286.761C377.606 286.761 378.09 286.629 378.547 286.365C379.004 286.102 379.335 285.759 379.54 285.337V283.386H378.266C376.273 283.386 375.277 283.969 375.277 285.135C375.277 285.645 375.447 286.043 375.787 286.33C376.127 286.617 376.563 286.761 377.097 286.761ZM383.328 283.166C383.328 281.684 383.671 280.506 384.356 279.633C385.042 278.754 385.95 278.314 387.081 278.314C388.241 278.314 389.146 278.725 389.797 279.545L389.876 278.49H391.361V287.771C391.361 289.002 390.995 289.972 390.263 290.681C389.536 291.39 388.558 291.744 387.327 291.744C386.642 291.744 385.971 291.598 385.314 291.305C384.658 291.012 384.157 290.61 383.812 290.101L384.655 289.125C385.353 289.986 386.205 290.417 387.213 290.417C388.004 290.417 388.619 290.194 389.059 289.749C389.504 289.304 389.727 288.677 389.727 287.868V287.051C389.076 287.801 388.188 288.176 387.063 288.176C385.95 288.176 385.048 287.728 384.356 286.831C383.671 285.935 383.328 284.713 383.328 283.166ZM384.963 283.351C384.963 284.423 385.183 285.267 385.622 285.882C386.062 286.491 386.677 286.796 387.468 286.796C388.493 286.796 389.246 286.33 389.727 285.398V281.057C389.229 280.148 388.481 279.694 387.485 279.694C386.694 279.694 386.076 280.002 385.631 280.617C385.186 281.232 384.963 282.144 384.963 283.351ZM397.769 288.176C396.479 288.176 395.431 287.754 394.622 286.91C393.813 286.061 393.409 284.927 393.409 283.509V283.21C393.409 282.267 393.588 281.426 393.945 280.688C394.309 279.943 394.812 279.363 395.457 278.947C396.107 278.525 396.811 278.314 397.566 278.314C398.803 278.314 399.764 278.722 400.449 279.536C401.135 280.351 401.478 281.517 401.478 283.034V283.711H395.035C395.059 284.648 395.331 285.407 395.853 285.987C396.38 286.562 397.048 286.849 397.856 286.849C398.431 286.849 398.917 286.731 399.315 286.497C399.714 286.263 400.062 285.952 400.361 285.565L401.354 286.339C400.558 287.563 399.362 288.176 397.769 288.176ZM397.566 279.65C396.91 279.65 396.359 279.891 395.914 280.371C395.469 280.846 395.193 281.514 395.088 282.375H399.852V282.252C399.805 281.426 399.582 280.787 399.184 280.336C398.785 279.879 398.246 279.65 397.566 279.65ZM404.896 278.49L404.94 279.545C405.638 278.725 406.578 278.314 407.762 278.314C409.092 278.314 409.997 278.824 410.478 279.844C410.794 279.387 411.204 279.018 411.708 278.736C412.218 278.455 412.818 278.314 413.51 278.314C415.596 278.314 416.656 279.419 416.691 281.628V288H415.065V281.725C415.065 281.045 414.91 280.538 414.6 280.204C414.289 279.864 413.768 279.694 413.035 279.694C412.432 279.694 411.931 279.876 411.532 280.239C411.134 280.597 410.902 281.08 410.838 281.689V288H409.203V281.769C409.203 280.386 408.526 279.694 407.173 279.694C406.106 279.694 405.377 280.148 404.984 281.057V288H403.358V278.49H404.896ZM419.188 287.147C419.188 286.866 419.27 286.632 419.434 286.444C419.604 286.257 419.855 286.163 420.189 286.163C420.523 286.163 420.775 286.257 420.945 286.444C421.121 286.632 421.209 286.866 421.209 287.147C421.209 287.417 421.121 287.643 420.945 287.824C420.775 288.006 420.523 288.097 420.189 288.097C419.855 288.097 419.604 288.006 419.434 287.824C419.27 287.643 419.188 287.417 419.188 287.147ZM423.934 287.147C423.934 286.866 424.016 286.632 424.18 286.444C424.35 286.257 424.602 286.163 424.936 286.163C425.27 286.163 425.521 286.257 425.691 286.444C425.867 286.632 425.955 286.866 425.955 287.147C425.955 287.417 425.867 287.643 425.691 287.824C425.521 288.006 425.27 288.097 424.936 288.097C424.602 288.097 424.35 288.006 424.18 287.824C424.016 287.643 423.934 287.417 423.934 287.147ZM428.68 287.147C428.68 286.866 428.762 286.632 428.926 286.444C429.096 286.257 429.348 286.163 429.682 286.163C430.016 286.163 430.268 286.257 430.438 286.444C430.613 286.632 430.701 286.866 430.701 287.147C430.701 287.417 430.613 287.643 430.438 287.824C430.268 288.006 430.016 288.097 429.682 288.097C429.348 288.097 429.096 288.006 428.926 287.824C428.762 287.643 428.68 287.417 428.68 287.147Z" fill="#DDDCDA"/>
<rect x="251" y="412" width="404" height="62" rx="6" fill="#DD6B20"/>
<path d="M435.842 443.454H430.779V446.882H436.721V449H428.143V436.203H436.703V438.339H430.779V441.389H435.842V443.454ZM440.438 439.49L440.518 440.589C441.197 439.739 442.108 439.314 443.251 439.314C444.259 439.314 445.009 439.61 445.501 440.202C445.993 440.794 446.245 441.679 446.257 442.856V449H443.717V442.918C443.717 442.379 443.6 441.989 443.365 441.749C443.131 441.503 442.741 441.38 442.196 441.38C441.481 441.38 440.945 441.685 440.588 442.294V449H438.048V439.49H440.438ZM451.75 445.897L453.517 439.49H456.171L452.963 449H450.537L447.329 439.49H449.983L451.75 445.897ZM459.977 449H457.428V439.49H459.977V449ZM457.278 437.029C457.278 436.648 457.404 436.335 457.656 436.089C457.914 435.843 458.263 435.72 458.702 435.72C459.136 435.72 459.481 435.843 459.739 436.089C459.997 436.335 460.126 436.648 460.126 437.029C460.126 437.416 459.994 437.732 459.73 437.979C459.473 438.225 459.13 438.348 458.702 438.348C458.274 438.348 457.929 438.225 457.665 437.979C457.407 437.732 457.278 437.416 457.278 437.029ZM467.588 449C467.471 448.771 467.386 448.487 467.333 448.147C466.718 448.833 465.918 449.176 464.934 449.176C464.002 449.176 463.229 448.906 462.613 448.367C462.004 447.828 461.699 447.148 461.699 446.328C461.699 445.32 462.071 444.547 462.815 444.008C463.565 443.469 464.646 443.196 466.059 443.19H467.228V442.646C467.228 442.206 467.113 441.854 466.885 441.591C466.662 441.327 466.308 441.195 465.821 441.195C465.394 441.195 465.057 441.298 464.811 441.503C464.57 441.708 464.45 441.989 464.45 442.347H461.91C461.91 441.796 462.08 441.286 462.42 440.817C462.76 440.349 463.24 439.982 463.861 439.719C464.482 439.449 465.18 439.314 465.953 439.314C467.125 439.314 468.054 439.61 468.739 440.202C469.431 440.788 469.776 441.614 469.776 442.681V446.803C469.782 447.705 469.908 448.388 470.154 448.851V449H467.588ZM465.487 447.233C465.862 447.233 466.208 447.151 466.524 446.987C466.841 446.817 467.075 446.592 467.228 446.311V444.676H466.278C465.007 444.676 464.33 445.115 464.248 445.994L464.239 446.144C464.239 446.46 464.351 446.721 464.573 446.926C464.796 447.131 465.101 447.233 465.487 447.233ZM477.071 441.872C476.726 441.825 476.421 441.802 476.157 441.802C475.196 441.802 474.566 442.127 474.268 442.777V449H471.728V439.49H474.127L474.197 440.624C474.707 439.751 475.413 439.314 476.315 439.314C476.597 439.314 476.86 439.353 477.106 439.429L477.071 441.872Z" fill="#F3F2F2"/>
<path d="M454.5 117.458V149.542" stroke="#DDDCDA" stroke-width="2" stroke-linecap="round" stroke-linejoin="round"/>
<path d="M438.458 133.5H470.542" stroke="#DDDCDA" stroke-width="2" stroke-linecap="round" stroke-linejoin="round"/>
<path d="M46.9043 49H42.457L31.0488 30.8418V49H26.6016V23.4062H31.0488L42.4922 41.6348V23.4062H46.9043V49ZM50.9473 39.3145C50.9473 37.4512 51.3164 35.7754 52.0547 34.2871C52.793 32.7871 53.8301 31.6387 55.166 30.8418C56.502 30.0332 58.0371 29.6289 59.7715 29.6289C62.3379 29.6289 64.418 30.4551 66.0117 32.1074C67.6172 33.7598 68.4844 35.9512 68.6133 38.6816L68.6309 39.6836C68.6309 41.5586 68.2676 43.2344 67.541 44.7109C66.8262 46.1875 65.7949 47.3301 64.4473 48.1387C63.1113 48.9473 61.5645 49.3516 59.8066 49.3516C57.123 49.3516 54.9727 48.4609 53.3555 46.6797C51.75 44.8867 50.9473 42.502 50.9473 39.5254V39.3145ZM55.2188 39.6836C55.2188 41.6406 55.623 43.1758 56.4316 44.2891C57.2402 45.3906 58.3652 45.9414 59.8066 45.9414C61.248 45.9414 62.3672 45.3789 63.1641 44.2539C63.9727 43.1289 64.377 41.4824 64.377 39.3145C64.377 37.3926 63.9609 35.8691 63.1289 34.7441C62.3086 33.6191 61.1895 33.0566 59.7715 33.0566C58.377 33.0566 57.2695 33.6133 56.4492 34.7266C55.6289 35.8281 55.2188 37.4805 55.2188 39.6836ZM78.668 43.5859L82.6934 29.9805H87.1055L80.5137 49H76.8047L70.1602 29.9805H74.5898L78.668 43.5859ZM100.869 49C100.682 48.6367 100.518 48.0449 100.377 47.2246C99.0176 48.6426 97.3535 49.3516 95.3848 49.3516C93.4746 49.3516 91.916 48.8066 90.709 47.7168C89.502 46.627 88.8984 45.2793 88.8984 43.6738C88.8984 41.6465 89.6484 40.0938 91.1484 39.0156C92.6602 37.9258 94.8164 37.3809 97.6172 37.3809H100.236V36.1328C100.236 35.1484 99.9609 34.3633 99.4102 33.7773C98.8594 33.1797 98.0215 32.8809 96.8965 32.8809C95.9238 32.8809 95.127 33.127 94.5059 33.6191C93.8848 34.0996 93.5742 34.7148 93.5742 35.4648H89.3027C89.3027 34.4219 89.6484 33.4492 90.3398 32.5469C91.0312 31.6328 91.9688 30.918 93.1523 30.4023C94.3477 29.8867 95.6777 29.6289 97.1426 29.6289C99.3691 29.6289 101.145 30.1914 102.469 31.3164C103.793 32.4297 104.473 34 104.508 36.0273V44.6055C104.508 46.3164 104.748 47.6816 105.229 48.7012V49H100.869ZM96.1758 45.9238C97.0195 45.9238 97.8105 45.7188 98.5488 45.3086C99.2988 44.8984 99.8613 44.3477 100.236 43.6562V40.0703H97.9336C96.3516 40.0703 95.1621 40.3457 94.3652 40.8965C93.5684 41.4473 93.1699 42.2266 93.1699 43.2344C93.1699 44.0547 93.4395 44.7109 93.9785 45.2031C94.5293 45.6836 95.2617 45.9238 96.1758 45.9238ZM122.49 49H118.219V29.9805H122.49V49ZM117.955 25.041C117.955 24.3848 118.16 23.8398 118.57 23.4062C118.992 22.9727 119.59 22.7559 120.363 22.7559C121.137 22.7559 121.734 22.9727 122.156 23.4062C122.578 23.8398 122.789 24.3848 122.789 25.041C122.789 25.6855 122.578 26.2246 122.156 26.6582C121.734 27.0801 121.137 27.291 120.363 27.291C119.59 27.291 118.992 27.0801 118.57 26.6582C118.16 26.2246 117.955 25.6855 117.955 25.041ZM131.174 29.9805L131.297 31.9668C132.633 30.4082 134.461 29.6289 136.781 29.6289C139.324 29.6289 141.064 30.6016 142.002 32.5469C143.385 30.6016 145.33 29.6289 147.838 29.6289C149.936 29.6289 151.494 30.209 152.514 31.3691C153.545 32.5293 154.072 34.2402 154.096 36.502V49H149.824V36.625C149.824 35.418 149.561 34.5332 149.033 33.9707C148.506 33.4082 147.633 33.127 146.414 33.127C145.441 33.127 144.645 33.3906 144.023 33.918C143.414 34.4336 142.986 35.1133 142.74 35.957L142.758 49H138.486V36.4844C138.428 34.2461 137.285 33.127 135.059 33.127C133.348 33.127 132.135 33.8242 131.42 35.2188V49H127.148V29.9805H131.174ZM169.846 49C169.658 48.6367 169.494 48.0449 169.354 47.2246C167.994 48.6426 166.33 49.3516 164.361 49.3516C162.451 49.3516 160.893 48.8066 159.686 47.7168C158.479 46.627 157.875 45.2793 157.875 43.6738C157.875 41.6465 158.625 40.0938 160.125 39.0156C161.637 37.9258 163.793 37.3809 166.594 37.3809H169.213V36.1328C169.213 35.1484 168.938 34.3633 168.387 33.7773C167.836 33.1797 166.998 32.8809 165.873 32.8809C164.9 32.8809 164.104 33.127 163.482 33.6191C162.861 34.0996 162.551 34.7148 162.551 35.4648H158.279C158.279 34.4219 158.625 33.4492 159.316 32.5469C160.008 31.6328 160.945 30.918 162.129 30.4023C163.324 29.8867 164.654 29.6289 166.119 29.6289C168.346 29.6289 170.121 30.1914 171.445 31.3164C172.77 32.4297 173.449 34 173.484 36.0273V44.6055C173.484 46.3164 173.725 47.6816 174.205 48.7012V49H169.846ZM165.152 45.9238C165.996 45.9238 166.787 45.7188 167.525 45.3086C168.275 44.8984 168.838 44.3477 169.213 43.6562V40.0703H166.91C165.328 40.0703 164.139 40.3457 163.342 40.8965C162.545 41.4473 162.146 42.2266 162.146 43.2344C162.146 44.0547 162.416 44.7109 162.955 45.2031C163.506 45.6836 164.238 45.9238 165.152 45.9238ZM177.211 39.3496C177.211 36.3965 177.902 34.041 179.285 32.2832C180.68 30.5137 182.525 29.6289 184.822 29.6289C186.99 29.6289 188.695 30.3848 189.938 31.8965L190.131 29.9805H193.98V48.4199C193.98 50.916 193.201 52.8848 191.643 54.3262C190.096 55.7676 188.004 56.4883 185.367 56.4883C183.973 56.4883 182.607 56.1953 181.271 55.6094C179.947 55.0352 178.939 54.2793 178.248 53.3418L180.27 50.7754C181.582 52.334 183.199 53.1133 185.121 53.1133C186.539 53.1133 187.658 52.7266 188.479 51.9531C189.299 51.1914 189.709 50.0664 189.709 48.5781V47.2949C188.479 48.666 186.838 49.3516 184.787 49.3516C182.561 49.3516 180.738 48.4668 179.32 46.6973C177.914 44.9277 177.211 42.4785 177.211 39.3496ZM181.465 39.7188C181.465 41.6289 181.852 43.1348 182.625 44.2363C183.41 45.3262 184.494 45.8711 185.877 45.8711C187.6 45.8711 188.877 45.1328 189.709 43.6562V35.2891C188.9 33.8477 187.635 33.127 185.912 33.127C184.506 33.127 183.41 33.6836 182.625 34.7969C181.852 35.9102 181.465 37.5508 181.465 39.7188ZM206.76 49.3516C204.053 49.3516 201.855 48.502 200.168 46.8027C198.492 45.0918 197.654 42.8184 197.654 39.9824V39.4551C197.654 37.5566 198.018 35.8633 198.744 34.375C199.482 32.875 200.514 31.709 201.838 30.877C203.162 30.0449 204.639 29.6289 206.268 29.6289C208.857 29.6289 210.855 30.4551 212.262 32.1074C213.68 33.7598 214.389 36.0977 214.389 39.1211V40.8438H201.961C202.09 42.4141 202.611 43.6562 203.525 44.5703C204.451 45.4844 205.611 45.9414 207.006 45.9414C208.963 45.9414 210.557 45.1504 211.787 43.5684L214.09 45.7656C213.328 46.9023 212.309 47.7871 211.031 48.4199C209.766 49.041 208.342 49.3516 206.76 49.3516ZM206.25 33.0566C205.078 33.0566 204.129 33.4668 203.402 34.2871C202.688 35.1074 202.23 36.25 202.031 37.7148H210.17V37.3984C210.076 35.9688 209.695 34.8906 209.027 34.1641C208.359 33.4258 207.434 33.0566 206.25 33.0566ZM221.736 29.9805L221.859 31.9668C223.195 30.4082 225.023 29.6289 227.344 29.6289C229.887 29.6289 231.627 30.6016 232.564 32.5469C233.947 30.6016 235.893 29.6289 238.4 29.6289C240.498 29.6289 242.057 30.209 243.076 31.3691C244.107 32.5293 244.635 34.2402 244.658 36.502V49H240.387V36.625C240.387 35.418 240.123 34.5332 239.596 33.9707C239.068 33.4082 238.195 33.127 236.977 33.127C236.004 33.127 235.207 33.3906 234.586 33.918C233.977 34.4336 233.549 35.1133 233.303 35.957L233.32 49H229.049V36.4844C228.99 34.2461 227.848 33.127 225.621 33.127C223.91 33.127 222.697 33.8242 221.982 35.2188V49H217.711V29.9805H221.736Z" fill="#F3F2F2"/>
<path d="M872 16L860 28" stroke="#F3F2F2" stroke-width="2" stroke-linecap="round" stroke-linejoin="round"/>
<path d="M860 16L872 28" stroke="#F3F2F2" stroke-width="2" stroke-linecap="round" stroke-linejoin="round"/>
</svg>
